<svg xmlns="http://www.w3.org/2000/svg" viewBox="0 0 96 96"><defs><style>.cls-1{fill:none;}.cls-2{fill:#61c3d4;}</style></defs><title>QTreeView_ClosedArrow</title><g id="Calque_2" data-name="Calque 2"><g id="Background"><rect class="cls-1" width="96" height="96"/></g><g id="QTreeView_ClosedArrow"><g id="QTreeView_ClosedArrow-2" data-name="QTreeView_ClosedArrow"><path class="cls-2" d="M25.73,25l0,50c0,2.11,2.62,4,4.51,2.59L64,53.19A3.06,3.06,0,0,0,64,48L30.21,22.56c-3.08-2.32-6.08,2.88-3,5.18L61,53.19C64,55.51,67,50.3,64,48L30.21,22.56c-3.08-2.32-6.08,2.88-3,5.18L61,53.19V48L27.18,72.41,31.69,75l0-50c0-3.86-6-3.87-6,0Z"/></g></g></g></svg>