<svg xmlns="http://www.w3.org/2000/svg" viewBox="0 0 96 96"><defs><style>.cls-1{fill:none;}.cls-2{fill:#61c3d4;}</style></defs><title>QTreeView_OpenArrow</title><g id="Calque_2" data-name="Calque 2"><g id="Background"><rect class="cls-1" width="96" height="96"/></g><g id="QTreeView_OpenArrow"><g id="QTreeView_OpenArrow-2" data-name="QTreeView_OpenArrow"><path class="cls-2" d="M73,32.8l-50,0c-2.11,0-4,2.62-2.59,4.51l24.4,33.78a3.06,3.06,0,0,0,5.18,0L75.44,37.27c2.32-3.08-2.88-6.08-5.18-3L44.81,68c-2.32,3.08,2.88,6.08,5.18,3L75.44,37.27c2.32-3.08-2.88-6.08-5.18-3L44.81,68H50L25.59,34.25,23,38.76l50,0c3.86,0,3.87-6,0-6Z"/></g></g></g></svg>